<?xml version="1.0" encoding="UTF-8"?>
<svg width="196px" height="198px" viewBox="0 0 196 198" version="1.1" xmlns="http://www.w3.org/2000/svg" xmlns:xlink="http://www.w3.org/1999/xlink">
    <!-- Generator: Sketch 63 (92445) - https://sketch.com -->
    <title>编组 2备份</title>
    <desc>Created with Sketch.</desc>
    <defs>
        <filter x="-80.0%" y="-80.0%" width="260.0%" height="260.0%" filterUnits="objectBoundingBox" id="filter-1">
            <feOffset dx="0" dy="10" in="SourceAlpha" result="shadowOffsetOuter1"></feOffset>
            <feGaussianBlur stdDeviation="20" in="shadowOffsetOuter1" result="shadowBlurOuter1"></feGaussianBlur>
            <feColorMatrix values="0 0 0 0 1   0 0 0 0 0.498039216   0 0 0 0 0  0 0 0 0.2 0" type="matrix" in="shadowBlurOuter1" result="shadowMatrixOuter1"></feColorMatrix>
            <feMerge>
                <feMergeNode in="shadowMatrixOuter1"></feMergeNode>
                <feMergeNode in="SourceGraphic"></feMergeNode>
            </feMerge>
        </filter>
    </defs>
    <g id="页面-1" stroke="none" stroke-width="1" fill="none" fill-rule="evenodd">
        <g id="联系我们" transform="translate(-278.000000, -210.000000)">
            <g id="编组-96" transform="translate(278.000000, 210.000000)">
                <g id="编组-2备份" filter="url(#filter-1)" transform="translate(38.000000, 29.000000)">
                    <circle id="椭圆形" fill="#FFFFFF" cx="60" cy="60" r="60"></circle>
                    <g id="018" transform="translate(26.153846, 29.230769)" fill="#FF7F00" fill-rule="nonzero">
                        <path d="M33.8726356,14.0980368 C33.4841976,14.0980368 33.1058078,14.1339984 32.7228566,14.1565405 L32.7228566,21.1121976 C33.1079892,21.077492 33.4784464,20.9965785 33.8726356,20.9965785 C40.8576437,20.9965785 46.5198738,26.6588086 46.5198738,33.6438168 C46.5198738,34.847472 46.297626,35.9894505 45.9831605,37.0930215 L53.0960834,37.0930215 C53.2960536,35.9713375 53.4184155,34.8227484 53.4184155,33.6438168 C53.4184155,22.8492609 44.6672575,14.0980368 33.8726356,14.0980368 Z M33.8726356,0.301085662 C33.4841976,0.301085662 33.1079892,0.346037637 32.7228566,0.35952323 L32.7228566,7.25806491 C33.1069316,7.24127403 33.4841976,7.19975955 33.8726356,7.19975955 C48.4768713,7.19975955 60.3169572,19.0385233 60.3169572,33.643949 C60.3169572,34.8162039 60.2147576,35.9614877 60.0664822,37.0931537 L67.036947,37.0931537 L67.0369477,37.0931537 C67.155383,35.9472215 67.2149562,34.795975 67.2154329,33.6439418 C67.2154329,15.2288362 52.2877412,0.301085662 33.8726357,0.301085662 L33.8726356,0.301085662 Z M45.9955223,47.2456235 C42.1666717,45.781379 38.5401049,43.8973624 34.336302,47.8216698 C31.7415814,50.2434575 29.8653653,49.9785714 28.1688248,49.0768215 C26.4733421,48.1752039 16.0278251,37.5109427 14.6018559,34.0222727 C13.1759528,30.5336689 13.9462182,30.0621359 14.6018559,29.0045085 C15.2565682,27.945625 19.804981,25.475514 17.0686617,17.71363 C14.3312847,9.95161372 12.1821836,4.10633648 1.03396154,17.71363 C-0.122494133,19.1249898 1.03396154,25.2409043 1.03396154,25.2409043 C1.03396154,25.2409043 8.89473992,50.9363129 35.569176,61.6219924 C39.7100462,63.2804558 49.0619081,60.6541367 52.8368163,54.094718 C54.6871189,50.8800568 52.0036843,49.5428016 45.9955223,47.2456235 Z" id="形状"></path>
                    </g>
                </g>
            </g>
        </g>
    </g>
</svg>