<?xml version="1.0" encoding="UTF-8"?>
<svg width="38px" height="38px" viewBox="0 0 38 38" version="1.1" xmlns="http://www.w3.org/2000/svg" xmlns:xlink="http://www.w3.org/1999/xlink">
    <!-- Generator: Sketch 63 (92445) - https://sketch.com -->
    <title>手指示备份</title>
    <desc>Created with Sketch.</desc>
    <g id="页面-1" stroke="none" stroke-width="1" fill="none" fill-rule="evenodd">
        <g id="联系我们" transform="translate(-422.000000, -833.000000)" fill="#333333" fill-rule="nonzero">
            <g id="编组-97" transform="translate(422.000000, 833.000000)">
                <g id="手指示备份" transform="translate(19.000000, 19.000000) scale(-1, 1) translate(-19.000000, -19.000000) translate(0.000000, 5.000000)">
                    <path d="M36.848062,8.74949605 C36.2372734,7.44815157 35.1242096,6.80319848 33.6803161,6.7860926 C31.8026569,6.76894422 26.7178666,6.78037646 24.840216,6.78037646 C21.6954198,6.78037646 18.5508298,6.78037646 15.3033338,6.78037646 C15.8167293,6.32954781 16.2619291,5.92999383 16.7244065,5.55320901 C18.5164118,4.09216669 18.276865,1.38126939 15.8680427,0.336882631 C14.4870254,-0.262609473 13.1629934,0.0057427142 12.0158983,1.01015646 C9.91548456,2.84789337 7.82663369,4.69143106 5.74335588,6.52919804 C5.53783911,6.70600219 5.34964651,6.79174428 5.0697297,6.79174428 C3.7856243,6.780356 2.5015146,6.79174428 1.2174092,6.780356 C0.983531315,6.780356 0.880773149,6.82045685 0.880773149,7.09421559 C0.886445288,13.207 0.886445288,19.3309564 0.880773149,25.4548698 C0.880773149,25.6832953 0.937978371,25.7459967 1.17172435,25.7459967 C2.50719035,25.7402366 3.84845715,25.7459967 5.18396612,25.7402366 C5.42369207,25.7402366 5.63483774,25.7858776 5.84048642,25.8943524 C6.79358597,26.4135959 7.74655231,26.921586 8.70545694,27.4351577 C8.88230535,27.532244 9.05937333,27.5723008 9.26488923,27.5723008 C12.6493654,27.5723008 16.0280494,27.5723008 19.4009284,27.5723008 C19.7719932,27.5723008 20.1202819,27.5150955 20.4740656,27.4237692 C22.24325,26.9956749 22.8824926,25.6431508 22.7912097,24.3361774 C22.7455244,23.7654443 22.5345115,23.2574113 22.1918937,22.7951959 C23.3735959,22.4585598 24.3037415,21.8420104 24.7260303,20.6778094 C25.1541246,19.4790487 24.8231166,18.4233224 23.9612544,17.5444042 C25.6565282,16.3858751 26.061492,14.9246566 25.0857479,13.1039225 C26.8548035,13.1039225 31.8083026,13.1039225 33.5376679,13.1039225 C33.9315091,13.1039225 34.3197645,13.0697576 34.702088,12.9498948 C36.6254789,12.373666 37.6412355,10.4331263 36.8480573,8.74946258 L36.8480573,8.74946258 L36.848062,8.74949605 Z M5.02988044,24.0052677 C5.02988044,24.2792462 4.96150676,24.3476637 4.69320012,24.341948 C3.98549969,24.3247996 3.26649846,24.3305157 2.55307888,24.341948 C2.34743021,24.3476642 2.30187683,24.2906347 2.30187683,24.0850737 C2.30754897,18.8513879 2.30754897,13.6177021 2.30187683,8.38994603 C2.30187683,8.17871312 2.35310209,8.11605559 2.5702273,8.1215079 C3.29490041,8.13289618 4.01974969,8.13289618 4.74459897,8.1215079 C4.9786526,8.11605559 5.02988044,8.18442926 5.02988044,8.41281058 C5.02420572,11.0153191 5.02420572,13.6120354 5.02420572,16.2146986 C5.02420563,18.8057774 5.01290527,21.4082945 5.02988044,24.0052428 L5.02988044,24.0052428 L5.02988044,24.0052677 Z M35.6895802,9.82814184 C35.6153584,10.5357091 34.9360621,11.2205458 34.1369026,11.3689471 C33.9201293,11.409092 33.7034892,11.4204805 33.4863636,11.4204805 C30.9009566,11.4261966 25.0914632,11.4261966 22.5058156,11.4145885 C22.2318371,11.4145885 22.1236262,11.4831822 22.1691796,11.7571168 C22.1748077,11.7969979 22.1691796,11.8425509 22.1691796,11.8883681 C22.1691796,12.1623027 22.0951336,12.464816 22.186284,12.7046335 C22.2890426,12.9671359 22.6659103,12.8358408 22.9054614,12.9498555 C23.1736357,13.0756544 23.441944,13.2069495 23.6587603,13.4121139 C24.4976703,14.1997964 24.3151044,15.4440655 23.2878274,16.0432482 C22.8198069,16.3115987 22.3118212,16.3628678 21.7924015,16.3286152 C21.5413756,16.3171829 21.4158843,16.3742562 21.4671977,16.6482347 C21.4728698,16.69968 21.4671977,16.7626013 21.4671977,16.8139147 C21.4671977,17.0876732 21.3985163,17.3846048 21.4841702,17.6300899 C21.5927326,17.9154568 21.9581246,17.7500407 22.1977187,17.8639235 C22.4944737,18.0180392 22.7912295,18.1492462 23.0194798,18.4004491 C24.1496452,19.6162255 23.0652089,20.9745123 22.0150239,21.1912383 C21.4273182,21.3170372 20.8391268,21.2313391 20.245616,21.2598758 C19.9831136,21.2713081 19.6464762,21.1456849 19.49236,21.3056926 C19.3269001,21.4652164 19.4582831,21.8077873 19.4411348,22.0647063 C19.4411348,22.0760946 19.4411348,22.0817668 19.4411348,22.0988712 C19.4411348,22.6125761 19.4411348,22.6011851 19.9260807,22.7265466 C20.3485026,22.829349 20.736541,23.0233016 21.0219956,23.3545313 C21.3930166,23.788254 21.6098346,24.2905679 21.3930166,24.866844 C21.1418145,25.5573956 20.6281118,25.9740597 19.9147825,26.1226759 C19.7264141,26.162337 19.5265692,26.173945 19.3269005,26.1797054 C16.0906925,26.1797054 12.8548969,26.1797054 9.61878766,26.1853775 C9.4302874,26.1853775 9.25902322,26.1455405 9.09365306,26.0483663 C8.27738766,25.5574392 7.46125976,25.0667742 6.63949865,24.587367 C6.46814681,24.4902807 6.39410082,24.3874345 6.39410082,24.1821373 C6.39977296,18.731502 6.39977296,13.2807808 6.39410082,7.82468854 C6.39410082,7.65351244 6.42254956,7.52226123 6.56523309,7.39668234 C8.68270977,5.54175362 10.8002251,3.66976628 12.9119397,1.80919146 C13.636746,1.17012939 14.4643509,1.06706013 15.3318437,1.39257328 C16.6102772,1.87211368 16.8671533,3.27590868 15.8512205,4.18921052 C14.6525499,5.26775748 13.4426173,6.32950793 12.2326459,7.39666386 C12.0672298,7.55069154 11.8960099,7.69931117 11.6562839,7.92175549 C12.7634997,7.92175549 13.7621934,7.92175549 14.7667825,7.92175549 C19.9489057,7.92175549 28.332892,7.92175549 33.5149723,7.92175549 C33.8461122,7.92175549 34.1656875,7.95596432 34.4852207,8.08725927 C35.2955478,8.40679117 35.7692401,9.08600028 35.6895674,9.82812732 L35.6895674,9.82812732 L35.6895802,9.82814184 Z" id="形状"></path>
                </g>
            </g>
        </g>
    </g>
</svg>